<svg xmlns="http://www.w3.org/2000/svg" width="32" height="32" viewBox="0 0 32 32"><path d="M 17 4 C 15.623645 4 14.5 5.1237 14.5 6.5 C 14.5 7.70435 15.362877 8.7133836 16.5 8.9472656 L 16.5 11 L 9.5 11 A 0.50005 0.50005 0 0 0 9 11.5 L 9 14.050781 C 9 14.050781 8.9980469 14.050781 8.9980469 14.050781 C 7.8609256 14.284681 7 15.295738 7 16.5 C 7 17.70435 7.8628787 18.713384 9 18.947266 L 9 21 L 4.5 21 A 0.50005 0.50005 0 0 0 4 21.5 L 4 24.050781 C 2.8619484 24.283954 2 25.295075 2 26.5 C 2 27.8764 3.1236486 29 4.5 29 C 5.8763514 29 7 27.8764 7 26.5 C 7 25.295075 6.1380516 24.283954 5 24.050781 L 5 22 L 9.5078125 22 L 14 22 L 14 24.050781 C 12.861949 24.283954 12 25.295075 12 26.5 C 12 27.8764 13.123649 29 14.5 29 C 15.876351 29 17 27.8764 17 26.5 C 17 25.295075 16.138051 24.283954 15 24.050781 L 15 21.5 A 0.50005 0.50005 0 0 0 14.5 21 L 10 21 L 10 18.947266 C 10 18.947266 10.001953 18.947266 10.001953 18.947266 C 11.139074 18.713384 12 17.70435 12 16.5 C 12 15.295738 11.137121 14.284681 10 14.050781 L 10 12 L 24 12 L 24 14.050781 C 24 14.050781 23.998047 14.050781 23.998047 14.050781 C 22.860926 14.284681 22 15.295738 22 16.5 C 22 17.70435 22.860926 18.713384 23.998047 18.947266 L 23.998047 21.5 A 0.50005 0.50005 0 0 0 24.498047 22 L 27 22 L 27 24.050781 C 27 24.050781 26.998047 24.050781 26.998047 24.050781 C 25.860926 24.284681 25 25.295738 25 26.5 C 25 27.8764 26.123649 29 27.5 29 C 28.876351 29 30 27.8764 30 26.5 C 30 25.295738 29.137121 24.284681 28 24.050781 L 28 21.5 A 0.50005 0.50005 0 0 0 27.5 21 L 24.998047 21 L 24.998047 18.947266 C 26.137027 18.714838 27 17.705674 27 16.5 C 27 15.295738 26.137121 14.284681 25 14.050781 L 25 11.5 A 0.50005 0.50005 0 0 0 24.5 11 L 17.5 11 L 17.5 8.9472656 C 17.5 8.9472656 17.501953 8.9472656 17.501953 8.9472656 C 18.639076 8.7133836 19.5 7.70435 19.5 6.5 C 19.5 5.1237 18.376355 4 17 4 z M 17 5 C 17.839655 5 18.5 5.6604 18.5 6.5 C 18.5 7.3134594 17.878276 7.9526634 17.076172 7.9921875 A 0.50005 0.50005 0 0 0 16.992188 7.9863281 A 0.50005 0.50005 0 0 0 16.919922 7.9921875 C 16.119728 7.9507498 15.5 7.3121277 15.5 6.5 C 15.5 5.6604 16.160345 5 17 5 z M 9.4570312 15.003906 C 9.4570312 15.003906 9.4589844 15.003906 9.4589844 15.003906 A 0.50005 0.50005 0 0 0 9.5371094 15.003906 C 10.358473 15.023615 11 15.673193 11 16.5 C 11 17.313459 10.378271 17.952663 9.5761719 17.992188 A 0.50005 0.50005 0 0 0 9.4921875 17.986328 A 0.50005 0.50005 0 0 0 9.4199219 17.992188 C 8.6197336 17.95075 8 17.312128 8 16.5 C 8 15.675193 8.6385304 15.026621 9.4570312 15.003906 z M 24.457031 15.003906 C 24.457031 15.003906 24.458984 15.003906 24.458984 15.003906 A 0.50005 0.50005 0 0 0 24.537109 15.003906 C 25.358473 15.023615 26 15.673193 26 16.5 C 26 17.323583 25.363484 17.971407 24.546875 17.996094 A 0.50005 0.50005 0 0 0 24.490234 17.994141 A 0.50005 0.50005 0 0 0 24.455078 17.996094 C 23.637516 17.972401 23 17.324249 23 16.5 C 23 15.675193 23.63853 15.026621 24.457031 15.003906 z M 4.4570312 25.003906 C 4.4576927 25.003888 4.4583226 25.003924 4.4589844 25.003906 A 0.50005 0.50005 0 0 0 4.5371094 25.003906 C 5.3584729 25.023615 6 25.673193 6 26.5 C 6 27.3397 5.3396486 28 4.5 28 C 3.6603514 28 3 27.3397 3 26.5 C 3 25.675193 3.6385304 25.026621 4.4570312 25.003906 z M 14.457031 25.003906 C 14.457693 25.003888 14.458323 25.003924 14.458984 25.003906 A 0.50005 0.50005 0 0 0 14.537109 25.003906 C 15.358473 25.023615 16 25.673193 16 26.5 C 16 27.3397 15.339649 28 14.5 28 C 13.660351 28 13 27.3397 13 26.5 C 13 25.675193 13.63853 25.026621 14.457031 25.003906 z M 27.457031 25.003906 C 27.457031 25.003906 27.458984 25.003906 27.458984 25.003906 A 0.50005 0.50005 0 0 0 27.537109 25.003906 C 28.358473 25.023615 29 25.673193 29 26.5 C 29 27.3397 28.339649 28 27.5 28 C 26.660351 28 26 27.3397 26 26.5 C 26 25.675193 26.63853 25.026621 27.457031 25.003906 z " color="#000" font-family="sans-serif" font-weight="400" overflow="visible" style="line-height:normal;text-indent:0;text-align:start;text-decoration-line:none;text-decoration-style:solid;text-decoration-color:#000;text-transform:none;block-progression:tb;isolation:auto;mix-blend-mode:normal"/></svg>