<svg xmlns="http://www.w3.org/2000/svg" viewBox="0 0 64 64"><path d="M5,62H59a3.00328,3.00328,0,0,0,3-3V37a3.00328,3.00328,0,0,0-3-3H50.5658a9.00925,9.00925,0,0,0-16.95,0h-.4342c.564-6.86659-3.18614-13.08563-9.55743-15.23785C31.44874,14.18137,28.2793,2.06067,19.09066,2c-9.189.06107-12.35741,12.183-4.53316,16.76212C8.18383,20.91645,4.437,27.13269,5,34a3.00328,3.00328,0,0,0-3,3V59A3.00328,3.00328,0,0,0,5,62Zm25.4541-2A.45512.45512,0,0,1,30,59.5459c-1.05577-16.81774,23.39566-18.46864,24.18166-1.455l0,1.455a.45512.45512,0,0,1-.4541.4541ZM59,36a1.00067,1.00067,0,0,1,1,1V59a1.00067,1.00067,0,0,1-1,1H56.13574a14.36193,14.36193,0,0,0-9.51153-15.23785A9.00944,9.00944,0,0,0,51.03186,36ZM42.09082,30a7.00848,7.00848,0,0,1,7,7c-.32931,9.26444-13.67209,9.26206-14-.00012A7.00848,7.00848,0,0,1,42.09082,30Zm-30-19a7.00849,7.00849,0,0,1,7-7c9.26444.32931,9.26206,13.67209-.00012,14A7.00848,7.00848,0,0,1,12.09082,11ZM7,32.09082C8.02741,14.88975,32.42325,16.63433,31.18164,34H7ZM4,37a1.00067,1.00067,0,0,1,1-1H33.14978a9.0094,9.0094,0,0,0,4.40772,8.76215A14.362,14.362,0,0,0,28.0459,60H5a1.00067,1.00067,0,0,1-1-1Z" data-name="Layer 1"/></svg>