<svg xmlns="http://www.w3.org/2000/svg" enable-background="new 0 0 49 49" viewBox="0 0 49 49"><path d="M27.9 26.1l.2-1.2c0-.2.1-.4.2-.6.2-.4.4-.6.6-.8 1.2-1.2 1.9-2.9 1.7-4.6-.3-2.9-2.7-5.2-5.7-5.3-1.7-.1-3.3.5-4.5 1.7-1.2 1.1-1.8 2.6-1.8 4.1 0 1.5.6 3 1.7 4.1.2.2.4.5.6.9.1.2.1.4.2.7l.2 1.1c.1.3.4.6.7.6h5.3C27.5 26.7 27.8 26.5 27.9 26.1zM27.4 29.1c0-.4-.3-.7-.7-.7h-4.3c-.4 0-.7.3-.7.7v.7h5.8V29.1zM23.2 32.7L23.2 32.7c.4.2.8.3 1.3.3s.9-.1 1.2-.3h0c.6-.3 1.1-.8 1.4-1.4h-5.3C22.1 31.9 22.6 32.4 23.2 32.7zM20.7 40.9c.1-.1.1-.1.2-.2.2-.3.4-.6.5-.9 0-.1 0-.1.1-.2.1-.2.1-.4.1-.6 0-.2 0-.5 0-.7 0-.2-.1-.5-.2-.7-.1-.3-.3-.6-.5-.9-.5-.7-1.3-1.1-2.1-1.2-.1 0-.2 0-.3 0-.2 0-.4 0-.6.1-.1 0-.1 0-.2 0-.2 0-.3.1-.5.2-.3.1-.5.3-.7.4l-9.2 7.2c-.2.1-.3.4-.3.6l0 0v1.9c0 1.3 1 2.4 2.3 2.6.1 0 .2 0 .3 0h1.1c.2 0 .3 0 .4-.2l2.8-2.2 6.5-5.1C20.6 41 20.6 41 20.7 40.9z"/><path d="M26.9,35.8c0.9-1.1,2.2-1.8,3.6-1.8c1,0,2,0.3,2.8,1l0.3,0.2v-1.7c0-0.2-0.1-0.4-0.3-0.6c-0.2-0.1-0.4-0.2-0.6-0.2l-6.5,1.3l-1.7,0.3l-1.7-0.3l-6.5-1.3c-0.2,0-0.4,0-0.6,0.2c-0.2,0.1-0.3,0.3-0.3,0.6v1.7l0.2-0.2c0.9-0.7,1.9-1.1,2.9-1.1c0.2,0,0.3,0,0.5,0c1.2,0.1,2.4,0.8,3.1,1.7c0.8,1,1.1,2.2,1,3.4c-0.1,1.2-0.8,2.3-1.7,3.1l-6,4.7v0.9c0,0.4,0.3,0.7,0.7,0.7h16.7c0.4,0,0.7-0.3,0.7-0.7v-0.9l-6-4.7C25.6,40.7,25.3,37.8,26.9,35.8z"/><path d="M34.9 28.1C34.9 28.1 34.9 28 34.9 28.1c-.4-.2-.7-.3-1-.4-1.1-.5-2.2-.8-3.4-.9v2.4c0 1.1-.8 2-1.9 2.2-.1.3-.2.6-.4.9l4.1-.8c.2 0 .3 0 .4 0 .5 0 1 .2 1.4.5.5.4.8 1 .8 1.7v2.8l6.9 5.4v-2.1C41.9 34.7 39.3 30.3 34.9 28.1zM14 33.5c0-.6.3-1.3.8-1.7.4-.3.9-.5 1.4-.5.1 0 .3 0 .4 0l4.2.8c-.2-.3-.3-.6-.4-.9-1.1-.1-1.9-1.1-1.9-2.2v-2.4c-1.2.1-2.3.4-3.4.9-.3.1-.6.3-.9.4-4.4 2.2-7.1 6.7-7.1 11.6v2.2l6.9-5.4V33.5zM35.1 38.2l-.7-.5-.3-.2-.4-.3-1.3-1c-.1 0-.1-.1-.2-.1 0 0 0 0 0 0-.1-.1-.2-.1-.3-.2 0 0-.1 0-.1-.1h0c-.1 0-.1 0-.2-.1-.1 0-.1 0-.2-.1h0c-.2-.1-.3-.1-.5-.1-.1 0-.3 0-.4 0-.2 0-.5 0-.7.1-.1 0-.2.1-.4.1-.1 0-.2.1-.3.1-.1 0-.2.1-.3.1-.1.1-.3.2-.4.3-.1.1-.2.2-.3.2-.1.1-.2.2-.2.3 0 .1-.1.1-.1.2 0 0 0 0 0 0 0 .1-.1.2-.1.2 0 .1-.1.2-.1.3 0 0 0 .1-.1.1 0 0 0 .1 0 .1 0 .1-.1.2-.1.3 0 .1-.1.3-.1.4 0 0 0 .1 0 .1 0 .2 0 .4 0 .6 0 .2.1.4.1.6 0 .1.1.2.1.3 0 .1.1.2.1.3 0 .1.1.1.1.2.1.1.1.2.2.3.1.2.3.3.4.4l6.5 5.1 2.8 2.2c.1.1.3.2.4.2h1.1c1.2 0 2.2-.8 2.5-2v0c0-.2.1-.4.1-.6v-2.1c0-.2-.1-.3-.3-.4L35.1 38.2zM13 20.2h1.5v2.3c0 1 .8 1.8 1.8 1.8H19c-1.3-1.3-2-3.1-2-4.9 0-2 .8-3.8 2.2-5.2 1.4-1.3 3.3-2.1 5.3-2.1.1 0 .2 0 .4 0 3.7.2 6.8 3 7.1 6.7.2 2.1-.5 4-1.9 5.5h2.7c1 0 1.8-.8 1.8-1.8v-2.3h1.5c.9 0 1.6-.7 1.6-1.6v-3.5c0-.9-.7-1.6-1.6-1.6h-1.5v-1.7c0-1-.8-1.8-1.8-1.8H16.3c-1 0-1.8.8-1.8 1.8v1.7H13c-.9 0-1.6.7-1.6 1.6v3.5C11.3 19.5 12.1 20.2 13 20.2zM23.8 6.8v1.8h1.5V6.8c1.4-.3 2.5-1.6 2.5-3.1 0-1.8-1.4-3.2-3.2-3.2-1.8 0-3.2 1.4-3.2 3.2C21.3 5.2 22.4 6.5 23.8 6.8z"/></svg>