<svg xmlns="http://www.w3.org/2000/svg" viewBox="0 0 64 64"><path d="M59,6H5A3.111,3.111,0,0,0,2,9.205V42.8A3.111,3.111,0,0,0,5,46H27v4H20a1,1,0,0,0-1,1v5H17v2H47V56H45V51a1,1,0,0,0-1-1H37V46H59a3.111,3.111,0,0,0,3-3.2V9.205A3.111,3.111,0,0,0,59,6ZM5,8H59a1.119,1.119,0,0,1,1,1.205V38H4V9.205A1.119,1.119,0,0,1,5,8ZM43,56H21V52H43Zm-8-6H29V46h6Zm24-6H5a1.119,1.119,0,0,1-1-1.2V40H60v2.8A1.119,1.119,0,0,1,59,44Z"/><rect width="2" height="2" x="55" y="41"/><path d="M34,26h2.522a9.266,9.266,0,0,0,.362.873L35.1,28.657a1,1,0,0,0,0,1.414L37.929,32.9a1,1,0,0,0,1.414,0l1.784-1.783a9.266,9.266,0,0,0,.873.362V34a1,1,0,0,0,1,1h4a1,1,0,0,0,1-1V31.478a9.266,9.266,0,0,0,.873-.362L50.657,32.9a1,1,0,0,0,1.414,0L54.9,30.071a1,1,0,0,0,0-1.414l-1.783-1.784A9.266,9.266,0,0,0,53.478,26H56a1,1,0,0,0,1-1V21a1,1,0,0,0-1-1H53.478a9.266,9.266,0,0,0-.362-.873L54.9,17.343a1,1,0,0,0,0-1.414L52.071,13.1a1,1,0,0,0-1.414,0l-1.784,1.783A9.266,9.266,0,0,0,48,14.522V12a1,1,0,0,0-1-1H43a1,1,0,0,0-1,1v2.522a9.266,9.266,0,0,0-.873.362L39.343,13.1a1,1,0,0,0-1.414,0L35.1,15.929a1,1,0,0,0,0,1.414l1.783,1.784a9.266,9.266,0,0,0-.362.873H34a1,1,0,0,0-1,1v4A1,1,0,0,0,34,26Zm1-4h2.262a1,1,0,0,0,.968-.75,7,7,0,0,1,.745-1.8,1,1,0,0,0-.154-1.216l-1.6-1.6,1.414-1.414,1.6,1.6a1,1,0,0,0,1.216.154,7,7,0,0,1,1.8-.745,1,1,0,0,0,.75-.968V13h2v2.262a1,1,0,0,0,.75.968,7,7,0,0,1,1.8.745,1,1,0,0,0,1.216-.154l1.6-1.6,1.414,1.414-1.6,1.6a1,1,0,0,0-.154,1.216,7,7,0,0,1,.745,1.8,1,1,0,0,0,.968.75H55v2H52.738a1,1,0,0,0-.968.75,7,7,0,0,1-.745,1.8,1,1,0,0,0,.154,1.216l1.6,1.6-1.414,1.414-1.6-1.6a1,1,0,0,0-1.216-.154,7,7,0,0,1-1.8.745,1,1,0,0,0-.75.968V33H44V30.738a1,1,0,0,0-.75-.968,7,7,0,0,1-1.8-.745,1,1,0,0,0-1.216.154l-1.6,1.6-1.414-1.414,1.6-1.6a1,1,0,0,0,.154-1.216,7,7,0,0,1-.745-1.8,1,1,0,0,0-.968-.75H35Z"/><path d="M45 28a5 5 0 1 0-5-5A5.006 5.006 0 0 0 45 28zm0-8a3 3 0 1 1-3 3A3 3 0 0 1 45 20zM9.293 16.707l1.414-1.414L9.414 14l1.293-1.293L9.293 11.293l-2 2a1 1 0 0 0 0 1.414z"/><rect width="5" height="2" x="12" y="13" transform="rotate(-53.119 14.5 14)"/><path d="M19.707,16.707l2-2a1,1,0,0,0,0-1.414l-2-2-1.414,1.414L19.586,14l-1.293,1.293Z"/><rect width="2" height="2" x="24" y="15"/><rect width="4" height="2" x="9" y="19"/><rect width="2" height="2" x="15" y="19"/><rect width="6" height="2" x="19" y="19"/><rect width="2" height="2" x="27" y="19"/><rect width="2" height="2" x="11" y="23"/><rect width="4" height="2" x="15" y="23"/><rect width="2" height="2" x="21" y="23"/><rect width="4" height="2" x="25" y="23"/><rect width="4" height="2" x="9" y="29"/><rect width="2" height="2" x="15" y="29"/><rect width="6" height="2" x="19" y="29"/><rect width="2" height="2" x="27" y="29"/><rect width="2" height="2" x="11" y="33"/><rect width="4" height="2" x="15" y="33"/><rect width="2" height="2" x="21" y="33"/><rect width="4" height="2" x="25" y="33"/></svg>